<?xml version="1.0" encoding="UTF-8" standalone="no"?>
<svg
   width="31"
   height="31"
   viewBox="0 0 31 31"
   fill="none"
   version="1.1"
   id="svg5"
   sodipodi:docname="arrow-white.svg"
   inkscape:version="1.4.2 (ebf0e94, 2025-05-08)"
   xmlns:inkscape="http://www.inkscape.org/namespaces/inkscape"
   xmlns:sodipodi="http://sodipodi.sourceforge.net/DTD/sodipodi-0.dtd"
   xmlns="http://www.w3.org/2000/svg"
   xmlns:svg="http://www.w3.org/2000/svg">
  <defs
     id="defs5" />
  <sodipodi:namedview
     id="namedview5"
     pagecolor="#ffffff"
     bordercolor="#000000"
     borderopacity="0.25"
     inkscape:showpageshadow="2"
     inkscape:pageopacity="0.0"
     inkscape:pagecheckerboard="0"
     inkscape:deskcolor="#d1d1d1"
     inkscape:zoom="60.064516"
     inkscape:cx="2.7054243"
     inkscape:cy="5.9519334"
     inkscape:window-width="1920"
     inkscape:window-height="1175"
     inkscape:window-x="-7"
     inkscape:window-y="-7"
     inkscape:window-maximized="1"
     inkscape:current-layer="g5" />
  <mask
     id="mask0_1251_79"
     style="mask-type:luminance"
     maskUnits="userSpaceOnUse"
     x="0"
     y="0"
     width="31"
     height="31">
    <path
       d="M0.953125 0.970703H30.9531V30.9707H0.953125V0.970703Z"
       fill="white"
       id="path1" />
  </mask>
  <g
     mask="url(#mask0_1251_79)"
     id="g5">
    <mask
       id="mask1_1251_79"
       style="mask-type:luminance"
       maskUnits="userSpaceOnUse"
       x="0"
       y="0"
       width="31"
       height="31">
      <path
         d="M30.9531 0.970703H0.9531V30.9707H30.9531V0.970703Z"
         fill="white"
         id="path2" />
    </mask>
    <path
       style="fill:#ffffff;fill-rule:evenodd;stroke-width:0.985359"
       d="M 0.9382347,2.5513293 C 1.104132,1.8780363 1.6405906,1.7479232 1.9700159,1.8863187 2.3520937,2.0468323 2.6503153,2.1420706 3.0759214,2.6396149 3.8123638,3.5005301 4.3355792,4.4710507 4.8211456,5.5511884 5.4914906,7.6329131 5.5522484,9.7623139 5.7105701,11.912376 5.9427053,15.056732 4.6037723,22.916366 3.9531169,24.511168 5.3638881,24.8828 6.5458346,24.089679 7.2998678,22.488445 L 7.40671,10.785647 7.3967249,8.206994 C 7.6789007,5.0709067 12.024625,5.3244388 13.08378,7.9337845 c 0.698387,0.8857516 0.721941,1.7406851 0.834394,2.8307155 0.340349,3.299131 -0.572441,7.96857 -0.628948,10.870661 1.46544,2.363733 1.731878,2.213305 3.082069,-0.130557 -0.317894,-2.815755 -0.554036,-7.24071 -0.651178,-10.512219 -0.04035,-1.3585753 0.130276,-2.2539351 0.334623,-2.9296917 0.546341,-2.1636281 4.801358,-2.434136 5.40962,0.067467 0.873808,3.2441957 0.59594,7.0181217 0.807822,10.6389277 0.07478,1.277718 0.09928,2.227606 0.474736,3.368249 0.35653,1.08318 0.908753,2.460628 1.712119,3.335822 l 0.739164,0.820617 1.062121,1.09612 -6.05006,0.206077 10.437464,2.85728 -1.955437,-9.688959 -0.603322,5.60544 c -0.274181,-0.312928 -0.90225,-0.727147 -1.412118,-1.147049 -0.553968,-0.456205 -1.247964,-1.47724 -1.475575,-1.823347 -0.337036,-0.486685 -0.803382,-1.600814 -0.966751,-2.343792 -0.324168,-1.47428 -0.236432,-2.938246 -0.26694,-3.569713 L 23.92439,12.658376 C 23.913056,11.760865 24.100573,9.7047568 23.957516,8.03466 23.883467,7.1704186 23.802545,6.5235651 23.462157,5.9122107 21.746884,2.8314464 16.843266,2.6144879 14.565403,4.7706898 12.589341,3.2048295 10.142579,2.9567348 7.5204929,3.856905 7.0697022,4.0116624 6.4383287,4.5188382 6.0062588,4.3716239 5.6946399,4.2578949 5.3660477,3.6371552 5.2353846,3.4309533 4.903605,2.9073618 4.7524632,2.7028088 4.283786,2.1713436 4.1588991,2.0297266 3.6329176,1.559013 2.989975,1.4079051 2.4578516,1.282843 1.938143,1.2723149 1.628045,1.363269 1.3872271,1.4062176 1.229252,1.4962248 1.075041,1.7183243 0.93620705,1.9189163 0.93425597,2.2030882 0.93823117,2.5513327 Z"
       id="path16"
       sodipodi:nodetypes="csssscccccsccsccsscccccccscsccsscscssscccc" />
  </g>
</svg>
