<?xml version="1.0" encoding="UTF-8" standalone="no"?>
<svg
   width="20"
   height="21"
   viewBox="0 0 20 21"
   fill="none"
   version="1.1"
   id="svg6"
   sodipodi:docname="arrow-text.svg"
   inkscape:version="1.4.2 (ebf0e94, 2025-05-08)"
   xmlns:inkscape="http://www.inkscape.org/namespaces/inkscape"
   xmlns:sodipodi="http://sodipodi.sourceforge.net/DTD/sodipodi-0.dtd"
   xmlns="http://www.w3.org/2000/svg"
   xmlns:svg="http://www.w3.org/2000/svg">
  <sodipodi:namedview
     id="namedview6"
     pagecolor="#ffffff"
     bordercolor="#000000"
     borderopacity="0.25"
     inkscape:showpageshadow="2"
     inkscape:pageopacity="0.0"
     inkscape:pagecheckerboard="0"
     inkscape:deskcolor="#d1d1d1"
     inkscape:zoom="256"
     inkscape:cx="3.3476562"
     inkscape:cy="7.9628906"
     inkscape:window-width="1920"
     inkscape:window-height="1175"
     inkscape:window-x="-7"
     inkscape:window-y="-7"
     inkscape:window-maximized="1"
     inkscape:current-layer="svg6" />
  <defs
     id="defs6">
    <clipPath
       id="clip0_1251_91">
      <rect
         width="20"
         height="21"
         fill="white"
         transform="matrix(-1 0 0 1 20 0)"
         id="rect6" />
    </clipPath>
  </defs>
  <path
     style="fill:#808080;fill-rule:evenodd;stroke-width:0.495602"
     d="M 0.05328149,5.5453114 C 0.16469644,5.2916957 0.524977,5.2426848 0.74621632,5.2948156 1.0028167,5.3552777 1.2030995,5.391152 1.4889332,5.5785668 1.9835221,5.902856 2.3349081,6.2684311 2.6610103,6.675297 3.1112082,7.4594398 3.2112087,8.2559527 3.25834,9.0714252 3.3424661,10.526986 2.5150241,13.216403 2.0780499,13.817132 3.0255114,13.957119 3.8192965,13.658368 4.3256986,13.055215 L 4.2539048,9.899068 C 4.2617122,9.2813046 4.3156154,7.9406901 4.3871637,7.6839843 5.0727505,6.2103828 7.453694,6.5222159 8.3229088,7.4825465 8.7748544,8.0433579 8.742825,8.252377 8.7704971,8.6390447 8.8606938,9.899383 8.3860507,11.640642 8.3481006,12.7338 9.3322797,13.62417 9.5112152,13.567506 10.417993,12.68462 10.204498,11.623982 10.045907,9.9571919 9.9806665,8.7248818 9.9535705,8.2131345 10.023044,7.9097051 10.205398,7.6213268 c 0.888921,-1.1555101 3.22455,-0.9168891 3.633055,0.025412 0.58684,1.2220212 0.400226,2.6435822 0.542523,4.0074662 0.05021,0.481291 0.06669,0.839095 0.318831,1.268751 0.239444,0.408013 0.610312,0.926868 1.149845,1.256536 l 0.496414,0.30911 0.713312,0.412885 -4.063166,0.07762 7.009708,1.076278 -1.313254,-3.649632 -0.405186,2.111454 C 18.103338,14.39934 17.681531,14.243312 17.339108,14.085143 16.967068,13.913299 16.500986,13.528697 16.348124,13.398326 16.121775,13.215004 15.80858,12.795333 15.698863,12.51547 15.481154,11.960138 15.540078,11.408692 15.519589,11.170832 l -0.029,-1.8184024 C 15.483003,9.0143553 15.608905,8.2398628 15.512822,7.6107709 15.4631,7.2852278 15.408752,7.0415713 15.180152,6.8112865 14.028187,5.6508253 10.734963,5.5691019 9.2051675,6.381299 7.8780623,5.7914715 6.2348379,5.6980194 4.4738685,6.037095 4.1711213,6.0953889 3.7470964,6.2864316 3.456922,6.2309791 3.2476413,6.1881397 3.0269618,5.9543198 2.9392097,5.8766477 2.7163894,5.6794216 2.6148838,5.6023706 2.3001243,5.4021787 2.216251,5.348834 1.8630069,5.1715262 1.4312121,5.114607 1.0738429,5.0674987 0.72481113,5.0635328 0.51655187,5.0977934 0.3548211,5.1139715 0.24872568,5.1478751 0.14515907,5.2315355 0.05191943,5.3070943 0.05060911,5.4141361 0.05327928,5.5453127 Z"
     id="path16"
     sodipodi:nodetypes="csssscccccsccsccsscccccccscsccsscscssscccc" />
</svg>
