<?xml version="1.0" encoding="UTF-8" standalone="no"?>
<svg
   width="167"
   height="39"
   viewBox="0 0 167 39"
   fill="none"
   version="1.1"
   id="svg7"
   sodipodi:docname="logo.svg"
   inkscape:version="1.4.2 (ebf0e94, 2025-05-08)"
   xmlns:inkscape="http://www.inkscape.org/namespaces/inkscape"
   xmlns:sodipodi="http://sodipodi.sourceforge.net/DTD/sodipodi-0.dtd"
   xmlns="http://www.w3.org/2000/svg"
   xmlns:svg="http://www.w3.org/2000/svg">
  <defs
     id="defs7">
    <rect
       x="96.973655"
       y="-52.061471"
       width="79.05272"
       height="14.437583"
       id="rect16" />
  </defs>
  <sodipodi:namedview
     id="namedview7"
     pagecolor="#ffffff"
     bordercolor="#000000"
     borderopacity="0.25"
     inkscape:showpageshadow="2"
     inkscape:pageopacity="0.0"
     inkscape:pagecheckerboard="0"
     inkscape:deskcolor="#d1d1d1"
     inkscape:zoom="5.6568543"
     inkscape:cx="76.102367"
     inkscape:cy="-25.367456"
     inkscape:window-width="1920"
     inkscape:window-height="1175"
     inkscape:window-x="-7"
     inkscape:window-y="-7"
     inkscape:window-maximized="1"
     inkscape:current-layer="svg7" />
  <path
     d="M 20.325825,38.7178 C 30.086993,38.7178 38,30.2112 38,19.7178 38,9.22439 30.086993,0.717804 20.325825,0.717804 c -9.761177,0 -17.6741746,8.506586 -17.6741746,18.999996 0,10.4934 7.9129976,19 17.6741746,19 z"
     fill="#00CC61"
     id="path1"
     style="fill:#ff7f2a;stroke-width:0.964479" />
  <mask
     id="mask0_1254_79"
     style="mask-type:luminance"
     maskUnits="userSpaceOnUse"
     x="10"
     y="10"
     width="18"
     height="19">
    <path
       d="M10 10.7178H28V28.7178H10V10.7178Z"
       fill="white"
       id="path2" />
  </mask>
  <text
     xml:space="preserve"
     id="text16"
     style="text-align:start;writing-mode:lr-tb;direction:ltr;white-space:pre;shape-inside:url(#rect16);display:inline;fill:#ffffff;fill-rule:evenodd"
     transform="matrix(1.4145344,0,0,1.9666524,-98.085011,110.23968)"><tspan
       x="96.974609"
       y="-41.142117"
       id="tspan1">Software SPN</tspan></text>
  <path
     style="fill:#ffffff;fill-rule:evenodd;stroke-width:0.819866"
     d="M 7.4869411,9.050424 C 7.6215308,8.4758742 8.0567514,8.3648434 8.3240095,8.482942 8.633984,8.6199154 8.8759265,8.7011864 9.2212151,9.1257618 9.8186802,9.8604182 10.243157,10.688605 10.63709,11.610333 c 0.543841,1.776425 0.593133,3.593535 0.721577,5.428274 0.188328,2.683216 -0.897929,9.39018 -1.4257965,10.751092 1.1445385,0.317132 2.1034345,-0.359673 2.7151705,-1.726076 l 0.08668,-9.9865 -0.0081,-2.200476 c 0.228925,-2.676159 3.754548,-2.459809 4.613825,-0.233142 0.56659,0.75585 0.5857,1.485401 0.67693,2.415572 0.276121,2.81529 -0.464413,6.799924 -0.510256,9.276403 1.188892,2.017073 1.405047,1.888708 2.500438,-0.111413 -0.257903,-2.402806 -0.449482,-6.17881 -0.528292,-8.970529 -0.03273,-1.15933 0.105691,-1.92338 0.271476,-2.500032 0.443238,-1.846317 3.895271,-2.077153 4.388746,0.05757 0.708907,2.768411 0.483477,5.988865 0.655373,9.078655 0.06066,1.090332 0.08055,1.900913 0.385148,2.874272 0.289249,0.924325 0.737259,2.09976 1.389017,2.846602 l 0.599672,0.700266 0.861684,0.935366 -4.908325,0.175856 8.467761,2.43824 -1.586416,-8.268007 -0.489467,4.783363 C 29.291493,29.108657 28.781948,28.755186 28.3683,28.396866 27.918873,28.007565 27.355843,27.136272 27.171186,26.840926 26.897754,26.42562 26.519415,25.474886 26.386877,24.840871 26.123882,23.582805 26.195062,22.33354 26.170312,21.794682 l -0.03504,-4.119478 c -0.0092,-0.765885 0.142933,-2.520448 0.02687,-3.945615 -0.06007,-0.737497 -0.125721,-1.289485 -0.401872,-1.81118 C 24.368693,9.2894596 20.390461,9.1043204 18.542463,10.9443 16.939313,9.6080837 14.95429,9.3963745 12.827031,10.164528 12.461311,10.296589 11.949087,10.729384 11.598555,10.60376 11.345743,10.506714 11.079161,9.9770064 10.973156,9.8010455 10.703988,9.354242 10.581369,9.179688 10.201138,8.7261665 10.099819,8.6053176 9.673098,8.2036379 9.1514877,8.0746914 8.7197841,7.9679702 8.2981519,7.9589858 8.0465738,8.036598 7.8512023,8.0732475 7.7230385,8.1500551 7.5979296,8.3395825 7.4852957,8.5107558 7.4837129,8.7532523 7.4869379,9.050424 Z"
     id="path16"
     sodipodi:nodetypes="csssscccccsccsccsscccccccscsccsscscssscccc" />
</svg>
