<?xml version="1.0" encoding="UTF-8" standalone="no"?>
<svg
   width="50"
   height="51"
   viewBox="0 0 50 51"
   fill="none"
   version="1.1"
   id="svg7"
   sodipodi:docname="loader.svg"
   inkscape:version="1.4.2 (ebf0e94, 2025-05-08)"
   xmlns:inkscape="http://www.inkscape.org/namespaces/inkscape"
   xmlns:sodipodi="http://sodipodi.sourceforge.net/DTD/sodipodi-0.dtd"
   xmlns="http://www.w3.org/2000/svg"
   xmlns:svg="http://www.w3.org/2000/svg">
  <sodipodi:namedview
     id="namedview7"
     pagecolor="#ffffff"
     bordercolor="#000000"
     borderopacity="0.25"
     inkscape:showpageshadow="2"
     inkscape:pageopacity="0.0"
     inkscape:pagecheckerboard="0"
     inkscape:deskcolor="#d1d1d1"
     showgrid="false"
     inkscape:zoom="18.254902"
     inkscape:cx="24.979592"
     inkscape:cy="25.5"
     inkscape:window-width="1920"
     inkscape:window-height="1175"
     inkscape:window-x="-7"
     inkscape:window-y="-7"
     inkscape:window-maximized="1"
     inkscape:current-layer="g7" />
  <g
     clip-path="url(#clip0_1251_115)"
     id="g7">
    <path
       d="M25 50.7188C11.1929 50.7188 0 39.5259 0 25.7188C0 11.9117 11.1929 0.718811 25 0.718811C38.8071 0.718811 50 11.9117 50 25.7188C50 39.5259 38.8071 50.7188 25 50.7188Z"
       fill="#00CC61"
       id="path1"
       style="fill:#ff6600" />
    <mask
       id="mask0_1251_115"
       style="mask-type:luminance"
       maskUnits="userSpaceOnUse"
       x="13"
       y="13"
       width="24"
       height="25">
      <path
         d="M13.1596 13.877H36.8438V37.5612H13.1596V13.877Z"
         fill="white"
         id="path2" />
    </mask>
    <path
       style="fill:#ffffff;fill-rule:evenodd;stroke-width:1.17365"
       d="m 7.7154034,9.3871623 c 0.1911768,-0.82887 0.8093831,-0.989048 1.1890103,-0.8186749 0.440301,0.1976048 0.7839657,0.3148499 1.2744303,0.9273603 0.848666,1.0598493 1.451613,2.2546263 2.011173,3.5843523 0.772496,2.562748 0.842512,5.184191 1.02496,7.831066 0.26751,3.870925 -1.275458,13.546686 -2.025266,15.509997 1.625756,0.457509 2.987814,-0.518881 3.85675,-2.490113 l 0.123125,-14.406963 -0.01152,-3.174504 c 0.325177,-3.860743 5.33313,-3.548629 6.553686,-0.336341 0.804811,1.090424 0.831955,2.142906 0.961541,3.48481 0.392215,4.061461 -0.659672,9.80987 -0.724789,13.382547 1.688755,2.909917 1.995791,2.724732 3.551734,-0.160729 -0.366338,-3.466393 -0.638466,-8.913822 -0.750411,-12.94128 -0.0465,-1.672499 0.15013,-2.774751 0.385618,-3.606654 0.629594,-2.663579 5.533018,-2.996593 6.233972,0.08305 1.006964,3.993831 0.686753,8.639799 0.930921,13.097265 0.08617,1.572962 0.114425,2.742341 0.547081,4.146551 0.410862,1.333473 1.047237,3.029207 1.973023,4.106633 l 0.851801,1.010235 1.223975,1.349399 -6.972007,0.253698 12.027989,3.517513 -2.253416,-11.927791 -0.695261,6.90069 C 38.687561,38.32405 37.963781,37.814119 37.376217,37.29719 36.737831,36.735567 35.938078,35.478602 35.675782,35.052523 35.287387,34.453385 34.749977,33.081814 34.561714,32.167156 34.188143,30.352215 34.289252,28.54997 34.254097,27.77259 l -0.04978,-5.942939 c -0.01306,-1.104899 0.203029,-3.636108 0.03817,-5.692117 C 34.157157,15.073588 34.063909,14.277266 33.67165,13.524647 31.694994,9.7320082 26.044134,9.4649194 23.419156,12.119354 21.141969,10.19167 18.322353,9.8862492 15.300697,10.99442 14.781213,11.184937 14.053627,11.809305 13.555716,11.628076 13.196609,11.488068 12.817944,10.723894 12.667369,10.470045 12.285027,9.8254686 12.110855,9.5736502 11.570757,8.9193795 11.426839,8.7450375 10.820705,8.1655561 10.079786,7.9795332 9.4665753,7.8255724 8.86767,7.8126109 8.5103171,7.9245809 8.2328021,7.9774558 8.0507538,8.0882587 7.8730436,8.3616798 7.7130528,8.608622 7.7108041,8.9584584 7.7153849,9.387171 Z"
       id="path16"
       sodipodi:nodetypes="csssscccccsccsccsscccccccscsccsscscssscccc" />
  </g>
  <defs
     id="defs7">
    <clipPath
       id="clip0_1251_115">
      <rect
         width="50"
         height="51"
         fill="white"
         transform="matrix(-1 0 0 1 50 0)"
         id="rect7" />
    </clipPath>
  </defs>
</svg>
