<?xml version="1.0" encoding="UTF-8" standalone="no"?>
<svg
   width="177"
   height="39"
   viewBox="0 0 177 39"
   fill="none"
   version="1.1"
   id="svg7"
   sodipodi:docname="logo.svg"
   inkscape:version="1.4.2 (ebf0e94, 2025-05-08)"
   xmlns:inkscape="http://www.inkscape.org/namespaces/inkscape"
   xmlns:sodipodi="http://sodipodi.sourceforge.net/DTD/sodipodi-0.dtd"
   xmlns="http://www.w3.org/2000/svg"
   xmlns:svg="http://www.w3.org/2000/svg">
  <defs
     id="defs7">
    <rect
       x="96.973656"
       y="-52.06147"
       width="79.052719"
       height="14.437583"
       id="rect16" />
    <rect
       x="96.973656"
       y="-52.06147"
       width="79.052719"
       height="14.437583"
       id="rect16-0" />
  </defs>
  <sodipodi:namedview
     id="namedview7"
     pagecolor="#ffffff"
     bordercolor="#000000"
     borderopacity="0.25"
     inkscape:showpageshadow="2"
     inkscape:pageopacity="0.0"
     inkscape:pagecheckerboard="0"
     inkscape:deskcolor="#d1d1d1"
     inkscape:zoom="5.6568543"
     inkscape:cx="76.013978"
     inkscape:cy="-19.357048"
     inkscape:window-width="1920"
     inkscape:window-height="1175"
     inkscape:window-x="-7"
     inkscape:window-y="-7"
     inkscape:window-maximized="1"
     inkscape:current-layer="svg7" />
  <mask
     id="mask0_1254_79"
     maskUnits="userSpaceOnUse"
     x="10"
     y="10"
     width="18"
     height="19">
    <path
       d="m 10,10.7178 h 18 v 18 H 10 Z"
       fill="#ffffff"
       id="path2" />
  </mask>
  <path
     d="m 17.803805,38.048617 c 9.388615,0 16.99961,-8.308737 16.99961,-18.55806 0,-10.2493316 -7.610995,-18.55805414 -16.99961,-18.55805414 -9.3886264,0 -16.99961148,8.30872254 -16.99961148,18.55805414 0,10.249323 7.61098508,18.55806 16.99961148,18.55806 z"
     fill="#00CC61"
     id="path1-4"
     style="fill:#ff7f2a;stroke-width:0.934828" />
  <text
     xml:space="preserve"
     id="text16-8"
     style="text-align:start;writing-mode:lr-tb;direction:ltr;white-space:pre;shape-inside:url(#rect16-0);display:inline;fill:#ffffff;fill-rule:evenodd"
     transform="matrix(1.2856924,0,0,1.9209079,-88.783142,107.90688)"><tspan
       x="96.974609"
       y="-41.142117"
       id="tspan1">SoftwareSPN</tspan></text>
  <path
     style="fill:#ffffff;fill-rule:evenodd;stroke-width:0.794662"
     d="M 5.4549376,9.0713055 C 5.5843902,8.5101194 6.0030004,8.4016715 6.2600578,8.5170231 6.5582011,8.650806 6.7909103,8.7301906 7.1230205,9.1448901 7.6976817,9.8624608 8.1059582,10.671381 8.484856,11.571672 c 0.5230841,1.735104 0.5704943,3.50995 0.6940372,5.302011 0.1811394,2.620805 -0.8636591,9.171764 -1.3713792,10.50102 1.1008549,0.309757 2.0231528,-0.351305 2.61154,-1.685927 l 0.08339,-9.754213 -0.0078,-2.149291 c 0.220188,-2.613914 3.53715,-2.237765 4.49948,-0.278435 0.168296,0.294502 0.501597,1.501566 0.589345,2.410099 0.265581,2.749806 -0.446689,6.641758 -0.490781,9.060633 1.143515,1.970155 1.351418,1.844778 2.405003,-0.108824 -0.248056,-2.346915 -0.432326,-6.03509 -0.508127,-8.761872 -0.03149,-1.132365 0.101658,-1.878645 0.261114,-2.441883 0.42632,-1.803369 3.7466,-2.028837 4.221239,0.05623 0.681853,2.704018 0.465028,5.849563 0.630361,8.867487 0.05833,1.064967 0.07748,1.856694 0.370448,2.807416 0.27821,0.902824 0.709122,2.050916 1.336004,2.780387 l 0.576785,0.683979 0.828799,0.913608 -4.720993,0.171767 8.144574,2.381526 -1.525868,-8.075693 -0.470785,4.672103 C 26.427288,28.662979 25.937191,28.31773 25.539331,27.967744 25.107056,27.587501 24.565519,26.736472 24.387908,26.447995 24.124913,26.042351 23.761012,25.113732 23.633535,24.494461 23.380576,23.26566 23.449041,22.045454 23.425236,21.519129 l -0.03369,-4.023659 c -0.0087,-0.74807 0.137532,-2.461824 0.02591,-3.853839 -0.05776,-0.720345 -0.120925,-1.259493 -0.386534,-1.769055 C 21.692351,9.3047872 17.865958,9.123955 16.088492,10.921135 14.546528,9.6159989 12.637266,9.4092154 10.591199,10.159501 10.239435,10.288498 9.7467615,10.711221 9.4096075,10.588518 9.166453,10.493728 8.9100449,9.9763367 8.8080862,9.8044682 8.5491912,9.3680577 8.4312516,9.1975626 8.0655334,8.7545903 7.9680859,8.6365532 7.5576467,8.2442164 7.0559446,8.1182692 6.6407168,8.0140237 6.2351779,8.0052446 5.9932014,8.0810648 5.805286,8.1168576 5.6820147,8.1918859 5.5616799,8.3770033 5.4533453,8.5441942 5.4518252,8.781051 5.4549214,9.0713112 Z"
     id="path16-8"
     sodipodi:nodetypes="csssscccccsccsccsscccccccscsccsscscssscccc" />
</svg>
