<?xml version="1.0" encoding="UTF-8" standalone="no"?>
<!-- Generator: Adobe Illustrator 22.1.0, SVG Export Plug-In . SVG Version: 6.00 Build 0)  -->

<svg
   version="1.1"
   id="Layer_1"
   x="0px"
   y="0px"
   viewBox="0 0 41.3 48.1"
   style="enable-background:new 0 0 41.3 48.1;"
   xml:space="preserve"
   sodipodi:docname="logo-mini.svg"
   inkscape:version="1.4.2 (ebf0e94, 2025-05-08)"
   xmlns:inkscape="http://www.inkscape.org/namespaces/inkscape"
   xmlns:sodipodi="http://sodipodi.sourceforge.net/DTD/sodipodi-0.dtd"
   xmlns="http://www.w3.org/2000/svg"
   xmlns:svg="http://www.w3.org/2000/svg"><defs
   id="defs1" /><sodipodi:namedview
   id="namedview1"
   pagecolor="#ffffff"
   bordercolor="#000000"
   borderopacity="0.25"
   inkscape:showpageshadow="2"
   inkscape:pageopacity="0.0"
   inkscape:pagecheckerboard="0"
   inkscape:deskcolor="#d1d1d1"
   inkscape:zoom="13.686412"
   inkscape:cx="16.878054"
   inkscape:cy="27.14371"
   inkscape:window-width="1920"
   inkscape:window-height="1175"
   inkscape:window-x="-7"
   inkscape:window-y="-7"
   inkscape:window-maximized="1"
   inkscape:current-layer="Layer_1" />
<style
   type="text/css"
   id="style1">
	.st0{fill:#FFFFFF;}
</style>

<path
   style="fill:#ffffff;fill-rule:evenodd;stroke-width:1.47805"
   d="M 0.26878509,2.2677917 C 0.49684462,1.1657897 1.2343146,0.95282973 1.6871786,1.1793459 2.212422,1.4420646 2.6223872,1.5979447 3.2074717,2.4122916 4.219861,3.8213826 4.9391271,5.4098679 5.6066379,7.1777671 6.5281633,10.584998 6.6116872,14.070266 6.8293329,17.589346 7.1484494,22.735826 5.3078138,35.599965 4.4133534,38.210231 6.3527478,38.818499 7.977574,37.520369 9.0141456,34.89957 L 9.1610237,15.745192 9.1472993,11.524618 c 0.387909,-5.1329451 6.3893917,-4.7042806 7.8819477,-0.479139 0.217962,0.564143 0.928524,2.881006 1.08311,4.6651 0.467882,5.399803 -0.786937,13.042439 -0.864616,17.792394 2.014549,3.868799 2.380819,3.622594 4.236933,-0.213693 -0.43701,-4.608648 -0.761638,-11.851127 -0.895178,-17.20572 -0.05546,-2.223625 0.17909,-3.689094 0.460009,-4.795129 0.751057,-3.5412859 6.600446,-3.9840354 7.436627,0.110418 1.201225,5.309888 0.81924,11.486807 1.110514,17.413107 0.10278,2.091288 0.136488,3.646003 0.652623,5.512934 0.490126,1.772881 1.249267,4.027396 2.353656,5.459858 l 1.016129,1.343131 1.460104,1.794057 -8.317041,0.337296 14.348421,4.676611 -2.688145,-15.858263 -0.82939,9.17462 c -0.376923,-0.512173 -1.240334,-1.190141 -1.941251,-1.877409 -0.761542,-0.746689 -1.715584,-2.417854 -2.02848,-2.984335 -0.463326,-0.796568 -1.104413,-2.620102 -1.328996,-3.83616 -0.445637,-2.413003 -0.325024,-4.809128 -0.366963,-5.842673 l -0.05937,-7.901271 c -0.01559,-1.468988 0.242198,-4.834287 0.04553,-7.567797 C 31.81169,9.8280161 31.700443,8.7692883 31.232513,7.7686626 28.874519,2.7262656 22.133498,2.3711642 19.00211,5.9002944 16.285611,3.3373962 12.922036,2.9313323 9.3174472,4.4046709 8.6977425,4.657968 7.8297909,5.4880807 7.2358228,5.2471299 6.8074329,5.0609885 6.3557164,4.0450017 6.1760939,3.7075057 5.7199946,2.8505225 5.5122202,2.5157233 4.8679274,1.6458573 4.6962452,1.4140655 3.9731764,0.6436331 3.0893203,0.39631017 2.3578083,0.19161605 1.6433628,0.17438369 1.2170699,0.32324596 0.88601672,0.39354078 0.66884585,0.54085982 0.45685329,0.90437852 0.26599772,1.2326935 0.26331536,1.6978085 0.26878003,2.2677917 Z"
   id="path16"
   sodipodi:nodetypes="csssscccccsccsccsscccccccscsccsscscssscccc" /></svg>
